<?xml version="1.0" encoding="UTF-8" standalone="no"?>
<svg xmlns="http://www.w3.org/2000/svg" width="317" height="287" viewBox="0 0 317 287" version="1.1">
  <title>La Ciotat Shipyards</title>
  <desc>Logo vectorisé pour utilisation comme symbole SVG dans QGIS.</desc>
  <rect x="0" y="0" width="317" height="287" rx="23" ry="23" fill="#182c43"/>
  <path d="M 233.00,227.00 L 232.00,228.00 L 232.00,259.00 L 252.00,259.00 L 254.00,257.00 L 255.00,257.00 L 259.00,253.00 L 259.00,251.00 L 260.00,250.00 L 260.00,237.00 L 259.00,236.00 L 258.00,233.00 L 255.00,230.00 L 254.00,230.00 L 252.00,228.00 L 246.00,228.00 L 245.00,227.00 Z M 240.00,232.00 L 247.00,232.00 L 249.00,234.00 L 250.00,234.00 L 253.00,237.00 L 253.00,238.00 L 254.00,239.00 L 254.00,248.00 L 253.00,249.00 L 253.00,250.00 L 249.00,254.00 L 248.00,254.00 L 247.00,255.00 L 239.00,255.00 L 238.00,254.00 L 238.00,234.00 Z M 202.00,227.00 L 202.00,259.00 L 206.00,259.00 L 207.00,260.00 L 208.00,259.00 L 208.00,248.00 L 210.00,246.00 L 211.00,247.00 L 211.00,249.00 L 212.00,250.00 L 213.00,253.00 L 215.00,255.00 L 216.00,258.00 L 217.00,259.00 L 223.00,259.00 L 224.00,260.00 L 224.00,258.00 L 222.00,256.00 L 221.00,253.00 L 217.00,248.00 L 217.00,245.00 L 218.00,244.00 L 221.00,243.00 L 221.00,242.00 L 223.00,240.00 L 223.00,232.00 L 219.00,228.00 L 215.00,228.00 L 214.00,227.00 Z M 210.00,231.00 L 211.00,232.00 L 214.00,232.00 L 217.00,235.00 L 217.00,239.00 L 215.00,241.00 L 213.00,241.00 L 212.00,242.00 L 210.00,242.00 L 208.00,240.00 L 208.00,233.00 Z M 175.00,227.00 L 174.00,228.00 L 174.00,230.00 L 173.00,231.00 L 173.00,233.00 L 170.00,238.00 L 170.00,241.00 L 168.00,243.00 L 168.00,246.00 L 166.00,249.00 L 166.00,251.00 L 165.00,252.00 L 165.00,254.00 L 163.00,257.00 L 163.00,260.00 L 164.00,259.00 L 169.00,259.00 L 170.00,258.00 L 170.00,255.00 L 172.00,253.00 L 173.00,253.00 L 174.00,252.00 L 183.00,252.00 L 186.00,254.00 L 186.00,256.00 L 188.00,259.00 L 195.00,259.00 L 194.00,258.00 L 194.00,256.00 L 192.00,253.00 L 192.00,251.00 L 190.00,248.00 L 190.00,246.00 L 188.00,243.00 L 188.00,241.00 L 187.00,240.00 L 187.00,238.00 L 185.00,235.00 L 185.00,232.00 L 183.00,230.00 L 183.00,228.00 L 182.00,227.00 Z M 178.00,235.00 L 179.00,235.00 L 181.00,238.00 L 181.00,241.00 L 182.00,242.00 L 182.00,244.00 L 183.00,245.00 L 183.00,247.00 L 182.00,248.00 L 175.00,248.00 L 174.00,247.00 L 174.00,244.00 L 176.00,241.00 L 176.00,238.00 Z M 134.00,227.00 L 134.00,228.00 L 138.00,233.00 L 139.00,236.00 L 141.00,238.00 L 141.00,239.00 L 145.00,244.00 L 145.00,259.00 L 151.00,259.00 L 151.00,246.00 L 152.00,245.00 L 152.00,244.00 L 153.00,243.00 L 154.00,240.00 L 156.00,238.00 L 156.00,237.00 L 158.00,235.00 L 158.00,234.00 L 162.00,229.00 L 162.00,227.00 L 156.00,227.00 L 155.00,228.00 L 154.00,228.00 L 154.00,230.00 L 152.00,232.00 L 152.00,234.00 L 150.00,236.00 L 150.00,238.00 L 149.00,239.00 L 148.00,239.00 L 147.00,238.00 L 147.00,237.00 L 146.00,236.00 L 145.00,233.00 L 143.00,231.00 L 143.00,229.00 L 141.00,227.00 Z M 126.00,228.00 L 121.00,228.00 L 120.00,227.00 L 111.00,227.00 L 110.00,228.00 L 110.00,259.00 L 111.00,260.00 L 112.00,259.00 L 115.00,259.00 L 116.00,260.00 L 116.00,249.00 L 118.00,247.00 L 123.00,247.00 L 124.00,246.00 L 127.00,245.00 L 129.00,243.00 L 129.00,242.00 L 130.00,241.00 L 130.00,233.00 L 129.00,232.00 L 129.00,231.00 Z M 118.00,231.00 L 119.00,231.00 L 120.00,232.00 L 122.00,232.00 L 124.00,235.00 L 124.00,238.00 L 123.00,239.00 L 123.00,240.00 L 121.00,242.00 L 117.00,242.00 L 116.00,241.00 L 116.00,233.00 Z M 94.00,227.00 L 93.00,228.00 L 93.00,259.00 L 100.00,259.00 L 100.00,228.00 L 99.00,227.00 Z M 55.00,227.00 L 55.00,260.00 L 56.00,259.00 L 61.00,259.00 L 61.00,247.00 L 62.00,246.00 L 75.00,246.00 L 76.00,247.00 L 76.00,259.00 L 77.00,260.00 L 78.00,259.00 L 82.00,259.00 L 82.00,227.00 L 77.00,227.00 L 76.00,228.00 L 76.00,240.00 L 75.00,241.00 L 63.00,241.00 L 61.00,239.00 L 61.00,228.00 L 60.00,227.00 Z M 277.00,226.00 L 276.00,227.00 L 274.00,227.00 L 273.00,228.00 L 272.00,228.00 L 269.00,231.00 L 269.00,232.00 L 268.00,233.00 L 268.00,238.00 L 269.00,239.00 L 269.00,240.00 L 272.00,243.00 L 273.00,243.00 L 275.00,245.00 L 276.00,245.00 L 277.00,246.00 L 280.00,247.00 L 283.00,250.00 L 283.00,253.00 L 280.00,256.00 L 279.00,256.00 L 278.00,257.00 L 277.00,257.00 L 276.00,256.00 L 273.00,255.00 L 271.00,253.00 L 270.00,253.00 L 269.00,254.00 L 268.00,257.00 L 270.00,259.00 L 272.00,259.00 L 274.00,261.00 L 282.00,261.00 L 284.00,259.00 L 286.00,259.00 L 288.00,257.00 L 288.00,255.00 L 289.00,254.00 L 289.00,248.00 L 288.00,247.00 L 288.00,246.00 L 285.00,243.00 L 284.00,243.00 L 283.00,242.00 L 282.00,242.00 L 281.00,241.00 L 280.00,241.00 L 279.00,240.00 L 276.00,239.00 L 274.00,236.00 L 274.00,234.00 L 277.00,231.00 L 281.00,231.00 L 282.00,232.00 L 285.00,233.00 L 288.00,230.00 L 286.00,228.00 L 285.00,228.00 L 282.00,226.00 Z M 33.00,226.00 L 32.00,227.00 L 30.00,227.00 L 29.00,228.00 L 28.00,228.00 L 26.00,230.00 L 26.00,232.00 L 24.00,234.00 L 25.00,235.00 L 24.00,236.00 L 24.00,237.00 L 26.00,239.00 L 26.00,241.00 L 27.00,241.00 L 28.00,242.00 L 28.00,243.00 L 29.00,243.00 L 30.00,244.00 L 31.00,244.00 L 32.00,245.00 L 35.00,246.00 L 37.00,248.00 L 38.00,248.00 L 40.00,250.00 L 40.00,253.00 L 38.00,255.00 L 37.00,255.00 L 34.00,257.00 L 33.00,256.00 L 30.00,255.00 L 28.00,253.00 L 27.00,253.00 L 26.00,254.00 L 26.00,255.00 L 25.00,256.00 L 24.00,256.00 L 24.00,257.00 L 25.00,257.00 L 26.00,258.00 L 26.00,259.00 L 28.00,259.00 L 30.00,261.00 L 39.00,261.00 L 39.00,260.00 L 40.00,259.00 L 42.00,259.00 L 45.00,256.00 L 45.00,255.00 L 46.00,254.00 L 46.00,248.00 L 44.00,246.00 L 44.00,245.00 L 43.00,244.00 L 42.00,244.00 L 40.00,242.00 L 39.00,242.00 L 38.00,241.00 L 36.00,241.00 L 34.00,239.00 L 33.00,239.00 L 30.00,236.00 L 30.00,235.00 L 34.00,231.00 L 38.00,231.00 L 41.00,234.00 L 44.00,231.00 L 44.00,229.00 L 43.00,228.00 L 42.00,228.00 L 41.00,227.00 L 39.00,227.00 L 38.00,226.00 Z M 248.00,207.00 L 246.00,209.00 L 246.00,210.00 L 245.00,211.00 L 245.00,213.00 L 246.00,214.00 L 246.00,215.00 L 248.00,217.00 L 251.00,217.00 L 252.00,216.00 L 253.00,216.00 L 254.00,217.00 L 255.00,216.00 L 255.00,207.00 L 254.00,207.00 L 253.00,208.00 L 252.00,207.00 Z M 249.00,208.00 L 251.00,208.00 L 254.00,211.00 L 253.00,214.00 L 250.00,216.00 L 247.00,213.00 L 247.00,210.00 Z M 184.00,208.00 L 184.00,210.00 L 183.00,211.00 L 183.00,213.00 L 184.00,214.00 L 184.00,215.00 L 187.00,217.00 L 190.00,217.00 L 191.00,216.00 L 192.00,216.00 L 192.00,215.00 L 194.00,213.00 L 194.00,211.00 L 193.00,210.00 L 193.00,209.00 L 191.00,207.00 L 186.00,207.00 L 185.00,208.00 Z M 187.00,208.00 L 190.00,208.00 L 192.00,210.00 L 192.00,213.00 L 189.00,216.00 L 188.00,216.00 L 185.00,213.00 L 185.00,210.00 Z M 157.00,207.00 L 157.00,216.00 L 158.00,217.00 L 158.00,216.00 L 159.00,215.00 L 159.00,214.00 L 158.00,213.00 L 158.00,210.00 L 159.00,209.00 L 159.00,208.00 L 158.00,207.00 Z M 61.00,207.00 L 59.00,209.00 L 59.00,211.00 L 58.00,212.00 L 59.00,213.00 L 59.00,215.00 L 62.00,217.00 L 64.00,217.00 L 65.00,216.00 L 68.00,216.00 L 68.00,207.00 L 67.00,207.00 L 66.00,208.00 L 65.00,207.00 Z M 62.00,208.00 L 64.00,208.00 L 67.00,210.00 L 67.00,213.00 L 64.00,216.00 L 63.00,216.00 L 60.00,213.00 L 60.00,211.00 Z M 281.00,203.00 L 281.00,206.00 L 280.00,207.00 L 280.00,209.00 L 281.00,210.00 L 281.00,216.00 L 282.00,217.00 L 282.00,210.00 L 284.00,208.00 L 282.00,205.00 L 282.00,203.00 Z M 219.00,203.00 L 219.00,206.00 L 217.00,208.00 L 219.00,210.00 L 219.00,216.00 L 220.00,216.00 L 220.00,210.00 L 222.00,208.00 L 220.00,205.00 L 220.00,203.00 Z M 157.00,201.00 L 157.00,203.00 L 158.00,203.00 L 159.00,202.00 L 158.00,201.00 Z M 124.00,201.00 L 122.00,203.00 L 121.00,203.00 L 119.00,206.00 L 119.00,212.00 L 123.00,216.00 L 124.00,216.00 L 125.00,217.00 L 129.00,217.00 L 130.00,216.00 L 131.00,216.00 L 132.00,215.00 L 132.00,214.00 L 131.00,214.00 L 130.00,215.00 L 125.00,215.00 L 124.00,214.00 L 123.00,214.00 L 121.00,211.00 L 121.00,207.00 L 122.00,206.00 L 122.00,205.00 L 124.00,203.00 L 126.00,203.00 L 127.00,202.00 L 128.00,202.00 L 129.00,203.00 L 131.00,203.00 L 132.00,204.00 L 132.00,203.00 L 130.00,201.00 Z M 28.00,201.00 L 28.00,217.00 L 29.00,217.00 L 30.00,216.00 L 31.00,216.00 L 32.00,217.00 L 33.00,216.00 L 34.00,217.00 L 35.00,217.00 L 36.00,216.00 L 35.00,215.00 L 31.00,215.00 L 29.00,213.00 L 30.00,212.00 L 30.00,202.00 L 29.00,201.00 Z M 168.00,172.00 L 168.00,174.00 L 169.00,174.00 L 171.00,176.00 L 172.00,176.00 L 173.00,177.00 L 173.00,178.00 L 174.00,178.00 L 176.00,180.00 L 177.00,180.00 L 178.00,181.00 L 179.00,181.00 L 180.00,182.00 L 181.00,182.00 L 182.00,183.00 L 183.00,183.00 L 184.00,184.00 L 185.00,184.00 L 190.00,187.00 L 192.00,187.00 L 195.00,189.00 L 199.00,189.00 L 200.00,190.00 L 204.00,190.00 L 205.00,191.00 L 288.00,191.00 L 288.00,184.00 L 209.00,184.00 L 208.00,183.00 L 201.00,183.00 L 198.00,181.00 L 195.00,181.00 L 194.00,180.00 L 193.00,180.00 L 188.00,177.00 L 186.00,177.00 L 184.00,175.00 L 181.00,174.00 L 179.00,172.00 L 178.00,172.00 L 176.00,170.00 L 175.00,170.00 L 174.00,169.00 L 174.00,168.00 L 172.00,168.00 L 170.00,170.00 L 170.00,171.00 L 169.00,172.00 Z M 144.00,172.00 L 143.00,172.00 L 142.00,171.00 L 142.00,170.00 L 141.00,170.00 L 140.00,169.00 L 140.00,168.00 L 138.00,168.00 L 134.00,172.00 L 133.00,172.00 L 128.00,176.00 L 126.00,176.00 L 125.00,177.00 L 124.00,177.00 L 122.00,179.00 L 119.00,179.00 L 117.00,181.00 L 114.00,181.00 L 113.00,182.00 L 111.00,182.00 L 110.00,183.00 L 104.00,183.00 L 103.00,184.00 L 24.00,184.00 L 24.00,191.00 L 106.00,191.00 L 107.00,190.00 L 111.00,190.00 L 112.00,189.00 L 117.00,189.00 L 119.00,187.00 L 122.00,187.00 L 125.00,185.00 L 127.00,185.00 L 129.00,183.00 L 131.00,183.00 L 133.00,181.00 L 134.00,181.00 L 135.00,180.00 L 136.00,180.00 L 138.00,178.00 L 139.00,178.00 L 143.00,174.00 L 144.00,174.00 Z M 177.00,163.00 L 177.00,164.00 L 180.00,167.00 L 181.00,167.00 L 183.00,169.00 L 184.00,169.00 L 189.00,173.00 L 191.00,173.00 L 192.00,174.00 L 194.00,174.00 L 197.00,176.00 L 200.00,176.00 L 201.00,177.00 L 204.00,177.00 L 205.00,178.00 L 288.00,178.00 L 288.00,171.00 L 209.00,171.00 L 208.00,170.00 L 203.00,170.00 L 202.00,169.00 L 200.00,169.00 L 199.00,168.00 L 197.00,168.00 L 196.00,167.00 L 194.00,167.00 L 192.00,165.00 L 191.00,165.00 L 189.00,163.00 L 188.00,163.00 L 186.00,161.00 L 185.00,161.00 L 183.00,159.00 L 183.00,158.00 L 181.00,158.00 L 181.00,159.00 Z M 135.00,163.00 L 133.00,161.00 L 133.00,160.00 L 131.00,158.00 L 130.00,158.00 L 127.00,161.00 L 126.00,161.00 L 124.00,163.00 L 123.00,163.00 L 118.00,167.00 L 116.00,167.00 L 115.00,168.00 L 113.00,168.00 L 110.00,170.00 L 104.00,170.00 L 103.00,171.00 L 24.00,171.00 L 24.00,178.00 L 106.00,178.00 L 107.00,177.00 L 111.00,177.00 L 112.00,176.00 L 115.00,176.00 L 118.00,174.00 L 120.00,174.00 L 121.00,173.00 L 122.00,173.00 L 123.00,172.00 L 126.00,171.00 L 128.00,169.00 L 129.00,169.00 L 131.00,167.00 L 132.00,167.00 L 135.00,164.00 Z M 126.00,153.00 L 121.00,148.00 L 120.00,148.00 L 116.00,152.00 L 115.00,152.00 L 113.00,154.00 L 111.00,154.00 L 109.00,156.00 L 107.00,156.00 L 106.00,157.00 L 103.00,157.00 L 102.00,158.00 L 24.00,158.00 L 24.00,165.00 L 105.00,165.00 L 106.00,164.00 L 109.00,164.00 L 110.00,163.00 L 112.00,163.00 L 113.00,162.00 L 115.00,162.00 L 117.00,160.00 L 119.00,160.00 L 121.00,158.00 L 122.00,158.00 L 125.00,155.00 L 126.00,155.00 Z M 186.00,153.00 L 186.00,154.00 L 190.00,158.00 L 191.00,158.00 L 193.00,160.00 L 194.00,160.00 L 197.00,162.00 L 199.00,162.00 L 200.00,163.00 L 202.00,163.00 L 203.00,164.00 L 206.00,164.00 L 207.00,165.00 L 288.00,165.00 L 288.00,158.00 L 210.00,158.00 L 209.00,157.00 L 207.00,157.00 L 206.00,156.00 L 203.00,156.00 L 201.00,154.00 L 199.00,154.00 L 192.00,147.00 Z M 24.00,152.00 L 98.00,152.00 L 99.00,151.00 L 106.00,151.00 L 108.00,149.00 L 110.00,149.00 L 112.00,147.00 L 113.00,147.00 L 116.00,144.00 L 116.00,142.00 L 111.00,137.00 L 111.00,136.00 L 110.00,136.00 L 107.00,133.00 L 107.00,132.00 L 109.00,130.00 L 110.00,130.00 L 111.00,129.00 L 114.00,129.00 L 115.00,128.00 L 117.00,128.00 L 118.00,127.00 L 121.00,127.00 L 122.00,126.00 L 125.00,126.00 L 128.00,124.00 L 132.00,124.00 L 135.00,122.00 L 138.00,122.00 L 139.00,121.00 L 142.00,121.00 L 143.00,120.00 L 145.00,120.00 L 121.00,120.00 L 120.00,119.00 L 120.00,118.00 L 122.00,116.00 L 122.00,115.00 L 126.00,111.00 L 126.00,110.00 L 130.00,106.00 L 130.00,105.00 L 132.00,103.00 L 180.00,103.00 L 184.00,107.00 L 184.00,108.00 L 186.00,110.00 L 186.00,111.00 L 187.00,111.00 L 188.00,112.00 L 188.00,113.00 L 193.00,118.00 L 191.00,120.00 L 167.00,120.00 L 169.00,120.00 L 170.00,121.00 L 173.00,121.00 L 174.00,122.00 L 178.00,122.00 L 180.00,124.00 L 184.00,124.00 L 185.00,125.00 L 187.00,125.00 L 188.00,126.00 L 191.00,126.00 L 192.00,127.00 L 194.00,127.00 L 195.00,128.00 L 197.00,128.00 L 198.00,129.00 L 202.00,129.00 L 205.00,132.00 L 205.00,133.00 L 199.00,139.00 L 199.00,140.00 L 198.00,141.00 L 197.00,141.00 L 196.00,144.00 L 199.00,147.00 L 200.00,147.00 L 202.00,149.00 L 204.00,149.00 L 206.00,151.00 L 213.00,151.00 L 214.00,152.00 L 288.00,152.00 L 287.00,151.00 L 287.00,150.00 L 285.00,148.00 L 284.00,145.00 L 281.00,142.00 L 281.00,141.00 L 278.00,138.00 L 278.00,137.00 L 275.00,134.00 L 275.00,133.00 L 268.00,126.00 L 268.00,125.00 L 252.00,109.00 L 251.00,109.00 L 250.00,108.00 L 250.00,107.00 L 249.00,107.00 L 242.00,100.00 L 241.00,100.00 L 236.00,95.00 L 235.00,95.00 L 226.00,87.00 L 225.00,87.00 L 223.00,85.00 L 222.00,85.00 L 219.00,82.00 L 218.00,82.00 L 216.00,80.00 L 215.00,80.00 L 212.00,77.00 L 211.00,77.00 L 209.00,75.00 L 208.00,75.00 L 206.00,73.00 L 205.00,73.00 L 203.00,71.00 L 202.00,71.00 L 197.00,67.00 L 194.00,66.00 L 192.00,64.00 L 191.00,64.00 L 186.00,60.00 L 184.00,60.00 L 182.00,58.00 L 179.00,57.00 L 174.00,53.00 L 172.00,53.00 L 170.00,51.00 L 169.00,51.00 L 168.00,50.00 L 167.00,50.00 L 166.00,49.00 L 163.00,48.00 L 161.00,46.00 L 159.00,46.00 L 157.00,44.00 L 155.00,44.00 L 153.00,42.00 L 151.00,42.00 L 149.00,40.00 L 147.00,40.00 L 142.00,37.00 L 140.00,37.00 L 138.00,35.00 L 136.00,35.00 L 133.00,33.00 L 131.00,33.00 L 128.00,31.00 L 126.00,31.00 L 125.00,30.00 L 123.00,30.00 L 122.00,29.00 L 121.00,29.00 L 120.00,28.00 L 118.00,28.00 L 117.00,27.00 L 114.00,27.00 L 113.00,26.00 L 108.00,26.00 L 106.00,24.00 L 98.00,24.00 L 98.00,30.00 L 97.00,31.00 L 97.00,32.00 L 98.00,33.00 L 98.00,48.00 L 99.00,49.00 L 99.00,52.00 L 100.00,53.00 L 100.00,62.00 L 101.00,63.00 L 101.00,70.00 L 102.00,71.00 L 102.00,83.00 L 99.00,86.00 L 98.00,86.00 L 89.00,95.00 L 88.00,95.00 L 81.00,102.00 L 80.00,102.00 L 73.00,109.00 L 72.00,109.00 L 70.00,112.00 L 69.00,112.00 L 65.00,116.00 L 64.00,116.00 L 64.00,117.00 L 63.00,118.00 L 62.00,118.00 L 43.00,136.00 L 42.00,136.00 L 35.00,143.00 L 34.00,143.00 L 25.00,152.00 Z M 136.00,96.00 L 140.00,92.00 L 140.00,91.00 L 143.00,88.00 L 169.00,88.00 L 173.00,92.00 L 173.00,93.00 L 176.00,96.00 L 176.00,97.00 L 175.00,98.00 L 137.00,98.00 L 136.00,97.00 Z M 157.00,77.00 L 158.00,76.00 L 160.00,76.00 L 161.00,77.00 L 162.00,77.00 L 163.00,78.00 L 163.00,79.00 L 167.00,83.00 L 167.00,84.00 L 165.00,86.00 L 159.00,86.00 L 157.00,84.00 Z M 154.00,76.00 L 155.00,77.00 L 155.00,84.00 L 153.00,86.00 L 147.00,86.00 L 145.00,84.00 L 147.00,82.00 L 147.00,81.00 L 149.00,79.00 L 149.00,78.00 L 152.00,76.00 Z" fill="#ffffff" fill-rule="evenodd" clip-rule="evenodd"/>
</svg>
